<svg xmlns="http://www.w3.org/2000/svg" width="56.726" height="56.726" viewBox="0 0 56.726 56.726"><defs><style>.a{fill:#4285f4;}</style></defs><path class="a" d="M28.363,56.726A28.363,28.363,0,1,1,56.726,28.363,28.395,28.395,0,0,1,28.363,56.726Zm0-54.835A26.472,26.472,0,1,0,54.835,28.363,26.5,26.5,0,0,0,28.363,1.891Zm0,0"/><path class="a" d="M152.971,200.367a3.228,3.228,0,0,1-3-2.027l-1.036-2.59a3.17,3.17,0,0,1-.134-.414l-1.793-7.171a1.356,1.356,0,0,0-.1-.272l-.963-1.924a1.328,1.328,0,0,0-1.513-.7l-.915.229a3.24,3.24,0,0,1-2.8-.61l-2.992-2.393a3.211,3.211,0,0,1-1.209-2.517v-1.013a3.2,3.2,0,0,1,.6-1.872l3.622-5.071a3.229,3.229,0,0,1,2.623-1.35h1.979a3.214,3.214,0,0,1,1.659.46l3.429,2.057a1.316,1.316,0,0,0,.946.164l2.051-.411a3.235,3.235,0,0,1,3.594,1.892l1.818,4.242a1.332,1.332,0,0,0,.538.615l1.863,1.119a3.222,3.222,0,0,1,.858,4.776l-1.655,2.069a1.341,1.341,0,0,0-.292.832v2.985a3.244,3.244,0,0,1-.944,2.279l-1.025,1.025a1.341,1.341,0,0,0-.2.256l-2.259,3.765a3.225,3.225,0,0,1-1.743,1.4,3.118,3.118,0,0,1-1.014.167Zm-8.2-17.028a3.2,3.2,0,0,1,2.869,1.784l.963,1.924a3.207,3.207,0,0,1,.244.66l1.793,7.171a1.275,1.275,0,0,0,.055.168l1.037,2.593a1.332,1.332,0,0,0,2.379.189l2.258-3.764a3.244,3.244,0,0,1,.484-.619l1.026-1.027a1.339,1.339,0,0,0,.39-.942v-2.985a3.232,3.232,0,0,1,.706-2.012l1.655-2.069a1.331,1.331,0,0,0-.354-1.974l-1.862-1.117a3.2,3.2,0,0,1-1.3-1.493l-1.819-4.243a1.34,1.34,0,0,0-1.485-.782l-2.051.411a3.206,3.206,0,0,1-2.291-.4l-3.431-2.058a1.328,1.328,0,0,0-.686-.19H143.37a1.336,1.336,0,0,0-1.084.558l-3.622,5.071a1.322,1.322,0,0,0-.248.773v1.012a1.328,1.328,0,0,0,.5,1.041l2.991,2.392a1.337,1.337,0,0,0,1.156.253l.914-.228A3.194,3.194,0,0,1,144.772,183.339Zm0,0" transform="translate(-121.397 -151.766)"/><path class="a" d="M361.239,335.608a.944.944,0,0,1-.668-.277l-1.891-1.891a.946.946,0,0,1-.258-.854l.946-4.727a.953.953,0,0,1,.258-.483l2.836-2.836a.945.945,0,0,1,1.595.483L365,329.75a.948.948,0,0,1-.116.673l-2.836,4.727a.945.945,0,0,1-.695.452C361.316,335.6,361.277,335.608,361.239,335.608Zm-.865-3.148.677.678,2.025-3.375-.528-2.637-1.385,1.385Zm0,0" transform="translate(-318.695 -288.336)"/><path class="a" d="M189.892,26.543a3.306,3.306,0,0,1-3.191-2.51,10.071,10.071,0,0,0-.824-2.247,1.281,1.281,0,0,0-1.018-.681,1.453,1.453,0,0,0-1.267.527c-1.9,2.3-3.757,3.364-5.515,3.165a4.489,4.489,0,0,1-3.209-2.351c-4.382-8.763-12.208-8.006-12.286-7.992a.935.935,0,0,1-.1.006,4.737,4.737,0,0,0-1.732.375A4.87,4.87,0,0,1,155,13.276a4.639,4.639,0,0,1,.02-5.74l.109-.143a3.932,3.932,0,0,1,2.783-1.485,9.3,9.3,0,0,0,7.878-5.1.94.94,0,0,1,.877-.5,28.271,28.271,0,0,1,26.78,24.773.944.944,0,0,1-.758,1.045c-.765.148-1.561.278-2.366.385a3.464,3.464,0,0,1-.431.028Zm-5.179-7.337c.113,0,.225.006.338.018a3.144,3.144,0,0,1,2.5,1.674,11.913,11.913,0,0,1,.988,2.672,1.408,1.408,0,0,0,1.538,1.071c.463-.061.922-.131,1.373-.207a26.375,26.375,0,0,0-24.29-22.2,11.189,11.189,0,0,1-9.089,5.557,2.037,2.037,0,0,0-1.446.764l-.093.121a2.76,2.76,0,0,0-.023,3.454,2.961,2.961,0,0,0,3.538.95,6.64,6.64,0,0,1,2.386-.511,13.189,13.189,0,0,1,5.2.762,15.781,15.781,0,0,1,8.926,8.27,2.592,2.592,0,0,0,1.743,1.32c1.067.133,2.389-.747,3.833-2.493a3.345,3.345,0,0,1,2.578-1.22Zm0,0" transform="translate(-136.951 -0.277)"/><path class="a" d="M4.569,110.684h-2.3a.945.945,0,0,1-.94-1.042A28.228,28.228,0,0,1,7.234,95.065.944.944,0,0,1,8.4,94.8l3.549,1.774a5.22,5.22,0,0,1,2.8,3.8l.073.432a5.179,5.179,0,0,1-2.805,5.509l-1.849.924A3.332,3.332,0,0,0,8.9,108.368a5.193,5.193,0,0,1-4.329,2.315Zm-1.235-1.891H4.569a3.305,3.305,0,0,0,2.756-1.475,5.211,5.211,0,0,1,2-1.768l1.849-.925a3.3,3.3,0,0,0,1.786-3.506l-.073-.432h0A3.323,3.323,0,0,0,11.1,98.268L8.255,96.844a26.343,26.343,0,0,0-4.92,11.949Zm0,0" transform="translate(-1.175 -84.211)"/><path class="a" d="M12.519,284.976a.946.946,0,0,1-.58-.2A28.446,28.446,0,0,1,1.077,264.971a.946.946,0,0,1,.569-.955l.99-.425A5.215,5.215,0,0,1,8.405,264.7l1.752,1.752a3.34,3.34,0,0,0,1.711.916,5.254,5.254,0,0,1,4.212,5.138v.262a7.156,7.156,0,0,1-1.207,3.987,5.328,5.328,0,0,0-.858,2.353l-.558,5.024a.941.941,0,0,1-.939.84Zm-9.488-19.5a26.555,26.555,0,0,0,8.742,16.7l.364-3.281a7.23,7.23,0,0,1,1.163-3.194,5.274,5.274,0,0,0,.889-2.937v-.262a3.358,3.358,0,0,0-2.692-3.284,5.213,5.213,0,0,1-2.678-1.433l-1.752-1.752a3.337,3.337,0,0,0-3.687-.711Zm0,0" transform="translate(-0.954 -234.007)"/></svg>