<svg xmlns="http://www.w3.org/2000/svg" width="62" height="69.181" viewBox="0 0 62 69.181"><defs><style>.a{fill:#fd982c;}.b{fill:#fa502e;}.c{fill:#fff;}.d{fill:#deecf1;}</style></defs><path class="a" d="M0,0,5.981,62.357l25.2,6.823,24.841-6.823L62,0ZM0,0"/><path class="b" d="M230.746,0V69.181l24.841-6.823L261.568,0Zm0,0" transform="translate(-199.568)"/><path class="c" d="M121.231,92.722H94.767l.443,4.841h25.9l-2.093,27.05-16.237,4.723-17.428-5.421V112.945H96.174v3.267l6.6,2.041,6.257-2.042.455-8.1H85.515l-2.707-25.8h38.423Zm0,0" transform="translate(-71.619 -71.187)"/><g transform="translate(31.178 11.121)"><path class="d" d="M230.746,82.309H249.18V92.722H230.746Zm0,0" transform="translate(-230.746 -82.309)"/><path class="d" d="M237.438,205.752l-.456,8.1-6.237,2.036v11.082l16.215-4.716,2.093-27.05H230.746v10.549Zm0,0" transform="translate(-230.746 -179.949)"/></g></svg>