<svg xmlns="http://www.w3.org/2000/svg" width="63.094" height="64" viewBox="0 0 63.094 64"><defs><style>.a{fill:#ffda44;}.b{fill:#ffcd00;}.c{fill:#4895ff;}.d{fill:#2682ff;}</style></defs><g transform="translate(0 0)"><path class="a" d="M63.094,31.289v7.256a6.949,6.949,0,0,1-6.95,6.949H34.464a2.1,2.1,0,0,0-2.091,2.2,2.134,2.134,0,0,0,2.151,1.989h5.127a2.094,2.094,0,0,1,2.094,2.094v5.232A6.993,6.993,0,0,1,34.752,64H28.669a6.994,6.994,0,0,1-6.995-6.994V38.574H6.95A6.95,6.95,0,0,1,0,31.624V25.453A6.95,6.95,0,0,1,6.95,18.5H28.021a2.094,2.094,0,0,0,2.091-2.192,2.134,2.134,0,0,0-2.151-1.994H23.768a2.094,2.094,0,0,1-2.094-2.093V6.993A6.994,6.994,0,0,1,28.669,0h6.083a6.993,6.993,0,0,1,6.993,6.974V24.34h14.4a6.95,6.95,0,0,1,6.95,6.95Zm0,0"/><path class="b" d="M285.064,31.289v7.256a6.949,6.949,0,0,1-6.95,6.949H256.434a2.1,2.1,0,0,0-2.091,2.2,2.134,2.134,0,0,0,2.151,1.989h5.127a2.094,2.094,0,0,1,2.094,2.094v5.232A6.993,6.993,0,0,1,256.721,64H253.68V0h3.042a6.993,6.993,0,0,1,6.993,6.974V24.34h14.4a6.95,6.95,0,0,1,6.95,6.95Zm0,0" transform="translate(-221.97 0)"/><path class="c" d="M288.967,422.518a2.093,2.093,0,1,1-2.092-2.092A2.092,2.092,0,0,1,288.967,422.518Zm0,0" transform="translate(-249.184 -367.873)"/><path class="d" d="M303.616,422.518a2.092,2.092,0,0,1-2.092,2.093v-4.185A2.092,2.092,0,0,1,303.616,422.518Zm0,0" transform="translate(-263.833 -367.873)"/><path class="c" d="M41.745,6.974V27.209A4.185,4.185,0,0,1,37.558,31.4H23.768a2.1,2.1,0,0,0-2.094,2.093v5.086H6.95A6.95,6.95,0,0,1,0,31.625V25.453A6.95,6.95,0,0,1,6.95,18.5H28.021a2.094,2.094,0,0,0,2.091-2.192,2.134,2.134,0,0,0-2.151-1.994H23.768a2.094,2.094,0,0,1-2.094-2.093V6.994A6.994,6.994,0,0,1,28.669,0h6.083a6.993,6.993,0,0,1,6.993,6.974Zm0,0" transform="translate(0 0)"/><path class="d" d="M263.714,6.974V27.209a4.185,4.185,0,0,1-4.187,4.187H253.68V0h3.041a6.993,6.993,0,0,1,6.993,6.974Zm0,0" transform="translate(-221.97 -0.001)"/><path class="a" d="M197.128,64.036a2.093,2.093,0,1,1-2.093-2.094A2.093,2.093,0,0,1,197.128,64.036Zm0,0" transform="translate(-168.824 -54.199)"/><path class="b" d="M211.785,64.036a2.093,2.093,0,0,1-2.093,2.092V61.941A2.094,2.094,0,0,1,211.785,64.036Zm0,0" transform="translate(-183.48 -54.199)"/></g></svg>