<svg xmlns="http://www.w3.org/2000/svg" width="55.779" height="54.618" viewBox="0 0 55.779 54.618"><defs><style>.a{fill:#5c6bc0}</style></defs><path d="M27.886,5.329a28.017,28.017,0,0,0-8.81,54.57c1.394.258,1.9-.607,1.9-1.349,0-.666-.024-2.426-.038-4.762-7.757,1.691-9.4-3.755-9.4-3.755-1.265-3.235-3.1-4.1-3.1-4.1-2.534-1.736.188-1.7.188-1.7a5.858,5.858,0,0,1,4.271,2.887c2.489,4.278,6.53,3.043,8.119,2.325A5.977,5.977,0,0,1,22.8,45.7C16.608,45,10.1,42.593,10.1,31.866a10.853,10.853,0,0,1,2.873-7.516,10.09,10.09,0,0,1,.272-7.408s2.343-.753,7.67,2.869a26.325,26.325,0,0,1,13.966,0c5.323-3.622,7.663-2.869,7.663-2.869a10.1,10.1,0,0,1,.279,7.408,10.832,10.832,0,0,1,2.866,7.516c0,10.755-6.519,13.122-12.732,13.816a6.7,6.7,0,0,1,1.893,5.184c0,3.744-.035,6.763-.035,7.68,0,.75.5,1.621,1.917,1.346A28.02,28.02,0,0,0,27.886,5.329Z" class="a" transform="translate(0 -5.329)"/></svg>